<?xml version="1.0"?>
<svg xmlns="http://www.w3.org/2000/svg" xmlns:xlink="http://www.w3.org/1999/xlink" version="1.1" id="Capa_1" x="0px" y="0px" viewBox="0 0 480.042 480.042" style="enable-background:new 0 0 480.042 480.042;" xml:space="preserve" width="512px" height="512px" class=""><g><g>
	<g>
		<path d="M136.042,32.021c-57.438,0-104,46.562-104,104s46.562,104,104,104s104-46.562,104-104    C239.975,78.611,193.452,32.087,136.042,32.021z M136.042,224.021c-48.601,0-88-39.399-87.999-88.001    c0-48.601,39.399-88,88-87.999c45.135,0,82.952,34.147,87.543,79.048l-115.544,66.008l7.936,13.888l107.528-61.424    C218.599,190.162,180.931,223.96,136.042,224.021z" data-original="#000000" class="active-path" data-old_color="#ffb606" fill="#ffb606"/>
	</g>
</g><g>
	<g>
		<path d="M472.042,0.021h-48v16h28.688l-46.288,46.264l-26.824-13.424c-2.925-1.461-6.444-0.995-8.888,1.176l-67.392,59.904    l-18.856-12.576c-2.522-1.681-5.777-1.792-8.408-0.288l-8.528,4.872c-18.791-72.677-92.94-116.36-165.616-97.569    S-14.431,97.32,4.36,169.997c13.302,51.449,55.369,90.428,107.681,99.776v18.248h-16c-4.418,0-8,3.582-8,8v32c0,4.418,3.582,8,8,8    v104c0,22.091,17.909,40,40,40s40-17.909,40-40v-104c4.418,0,8-3.582,8-8v-32c0-4.418-3.582-8-8-8h-16v-18.248    c71.663-12.3,120.659-79.216,110.744-151.248l8.936-5.104l19.88,13.256c3.027,2.017,7.034,1.737,9.752-0.68l67.952-60.4    l27.16,13.6c3.079,1.539,6.797,0.937,9.232-1.496l50.344-50.368v28.688h16v-48C480.042,3.603,476.46,0.021,472.042,0.021z     M160.042,440.021c0,13.255-10.745,24-24,24s-24-10.745-24-24v-104h48V440.021z M168.042,304.021v16h-64v-16H168.042z     M128.042,288.021v-16.408c2.664,0.16,5.296,0.408,8,0.408s5.336-0.248,8-0.408v16.408H128.042z M136.042,256.021    c-66.274,0-120-53.726-120-120s53.726-120,120-120s120,53.726,120,120C255.971,202.266,202.286,255.951,136.042,256.021z" data-original="#000000" class="active-path" data-old_color="#ffb606" fill="#ffb606"/>
	</g>
</g><g>
	<g>
		<path d="M472.042,88.021h-64c-4.418,0-8,3.582-8,8v80h-56c-4.418,0-8,3.582-8,8v32h-56c-4.418,0-8,3.582-8,8v96h-56    c-4.418,0-8,3.582-8,8v144c0,4.418,3.582,8,8,8h256c4.418,0,8-3.582,8-8v-376C480.042,91.603,476.46,88.021,472.042,88.021z     M272.042,464.021h-48v-128h48V464.021z M336.042,464.021h-48v-136v-96h48V464.021z M400.042,464.021h-48v-240v-32h48V464.021z     M464.042,464.021h-48v-360h48V464.021z" data-original="#000000" class="active-path" data-old_color="#ffb606" fill="#ffb606"/>
	</g>
</g></g> </svg>
